<svg xmlns="http://www.w3.org/2000/svg" viewBox="0 0 158.37224 50.4"><path fill="#000000" fill-rule="evenodd" d="m 9.0596088,31.104 c 0,8.136 5.3280002,13.392 12.3840002,13.392 6.984,0 12.384,-5.4 12.384,-13.392 V 0 h 7.56 v 50.4 h -7.488 v -4.68 c -3.384,3.528 -8.064,5.544 -13.32,5.544 C 9.7796088,51.264 1.4996088,43.416 1.4996088,31.536 V 0 h 7.56 z M 48.803609,50.4 V 0 h 7.272 v 18.36 a 18.156,18.156 0 0 1 13.032,-5.472 c 10.8,0 19.296,8.568 19.296,19.224 0,10.584 -8.496,19.152 -19.296,19.152 -5.112,0 -9.792,-2.088 -13.104,-5.472 V 50.4 Z m 7.128,-18.288 c 0,7.056 5.616,12.744 12.672,12.744 6.912,0 12.6,-5.688 12.6,-12.744 0,-7.128 -5.688,-12.744 -12.6,-12.744 -6.984,0 -12.672,5.616 -12.672,12.744 z m 36.792,-0.072 c 0,-10.368 8.136001,-19.08 18.864001,-19.08 10.584,0 18.36,8.136 18.36,19.08 v 2.376 h -29.88 c 1.008,5.976 5.976,10.44 12.168,10.44 4.248,0 7.848,-1.728 10.584,-5.4 l 5.256,3.888 c -3.672,4.896 -9.144,7.848 -15.84,7.848 -11.016,0 -19.512001,-8.208 -19.512001,-19.152 z M 111.44361,19.296 c -5.4,0 -9.936,3.744 -11.232,9.36 h 22.392 c -1.224,-5.616 -5.76,-9.36 -11.16,-9.36 z m 42.696,0.864 h -3.024 c -4.752,0 -8.208,3.672 -8.208,9.36 V 50.4 h -7.272 V 13.68 h 7.2 v 4.536 c 1.8,-2.952 4.752,-4.824 8.784,-4.824 h 2.52 z"/></svg>